<mxfile host="app.diagrams.net" modified="2024-01-02T07:20:50.700Z" agent="Mozilla/5.0 (Macintosh; Intel Mac OS X 10_15_7) AppleWebKit/537.36 (KHTML, like Gecko) Chrome/120.0.0.0 Safari/537.36" version="22.1.16" etag="HKKevSCmWFIVPsnC7cW_" type="github">
  <diagram name="ページ1" id="2Ej-MfnuuRwrPK5XNhBA">
    <mxGraphModel>
      <root>
        <mxCell id="0" />
        <mxCell id="1" parent="0" />
      </root>
    </mxGraphModel>
  </diagram>
</mxfile>
